<svg width="28" height="28" viewBox="0 0 28 28" fill="none" xmlns="http://www.w3.org/2000/svg">
<path d="M19.8333 9.33329V5.83329C19.8333 5.52387 19.7104 5.22713 19.4916 5.00833C19.2728 4.78954 18.9761 4.66663 18.6667 4.66663H7C6.38116 4.66663 5.78767 4.91246 5.35009 5.35004C4.9125 5.78763 4.66667 6.38112 4.66667 6.99996M4.66667 6.99996C4.66667 7.6188 4.9125 8.21229 5.35009 8.64988C5.78767 9.08746 6.38116 9.33329 7 9.33329H21C21.3094 9.33329 21.6062 9.45621 21.825 9.675C22.0438 9.89379 22.1667 10.1905 22.1667 10.5V14M4.66667 6.99996V21C4.66667 21.6188 4.9125 22.2123 5.35009 22.6499C5.78767 23.0875 6.38116 23.3333 7 23.3333H21C21.3094 23.3333 21.6062 23.2104 21.825 22.9916C22.0438 22.7728 22.1667 22.476 22.1667 22.1666V18.6666M23.3333 14V18.6666H18.6667C18.0478 18.6666 17.4543 18.4208 17.0168 17.9832C16.5792 17.5456 16.3333 16.9521 16.3333 16.3333C16.3333 15.7145 16.5792 15.121 17.0168 14.6834C17.4543 14.2458 18.0478 14 18.6667 14H23.3333Z" stroke="#0C0A18" stroke-width="2" stroke-linecap="round" stroke-linejoin="round"/>
</svg>
