<svg width="28" height="28" viewBox="0 0 28 28" fill="none" xmlns="http://www.w3.org/2000/svg">
<path d="M16.3333 3.5V8.16667C16.3333 8.47609 16.4562 8.77283 16.675 8.99162C16.8938 9.21042 17.1906 9.33333 17.5 9.33333H22.1667M16.3333 3.5H8.16667C7.54783 3.5 6.95433 3.74583 6.51675 4.18342C6.07916 4.621 5.83333 5.21449 5.83333 5.83333V22.1667C5.83333 22.7855 6.07916 23.379 6.51675 23.8166C6.95433 24.2542 7.54783 24.5 8.16667 24.5H19.8333C20.4522 24.5 21.0457 24.2542 21.4832 23.8166C21.9208 23.379 22.1667 22.7855 22.1667 22.1667V9.33333M16.3333 3.5L22.1667 9.33333M14 14.5787V16.3333L15.1667 17.5M9.33333 16.3333C9.33333 17.571 9.825 18.758 10.7002 19.6332C11.5753 20.5083 12.7623 21 14 21C15.2377 21 16.4247 20.5083 17.2998 19.6332C18.175 18.758 18.6667 17.571 18.6667 16.3333C18.6667 15.0957 18.175 13.9087 17.2998 13.0335C16.4247 12.1583 15.2377 11.6667 14 11.6667C12.7623 11.6667 11.5753 12.1583 10.7002 13.0335C9.825 13.9087 9.33333 15.0957 9.33333 16.3333Z" stroke="#0C0A18" stroke-width="2" stroke-linecap="round" stroke-linejoin="round"/>
</svg>
