<svg width="28" height="28" viewBox="0 0 28 28" fill="none" xmlns="http://www.w3.org/2000/svg">
<path d="M19.8333 10.5V8.16671C19.8333 7.54787 19.5875 6.95438 19.1499 6.51679C18.7123 6.07921 18.1188 5.83337 17.5 5.83337H5.83333C5.21449 5.83337 4.621 6.07921 4.18342 6.51679C3.74583 6.95438 3.5 7.54787 3.5 8.16671V15.1667C3.5 15.7855 3.74583 16.379 4.18342 16.8166C4.621 17.2542 5.21449 17.5 5.83333 17.5H8.16667M8.16667 12.8334C8.16667 12.2145 8.4125 11.621 8.85008 11.1835C9.28767 10.7459 9.88116 10.5 10.5 10.5H22.1667C22.7855 10.5 23.379 10.7459 23.8166 11.1835C24.2542 11.621 24.5 12.2145 24.5 12.8334V19.8334C24.5 20.4522 24.2542 21.0457 23.8166 21.4833C23.379 21.9209 22.7855 22.1667 22.1667 22.1667H10.5C9.88116 22.1667 9.28767 21.9209 8.85008 21.4833C8.4125 21.0457 8.16667 20.4522 8.16667 19.8334V12.8334ZM14 16.3334C14 16.9522 14.2458 17.5457 14.6834 17.9833C15.121 18.4209 15.7145 18.6667 16.3333 18.6667C16.9522 18.6667 17.5457 18.4209 17.9832 17.9833C18.4208 17.5457 18.6667 16.9522 18.6667 16.3334C18.6667 15.7145 18.4208 15.121 17.9832 14.6835C17.5457 14.2459 16.9522 14 16.3333 14C15.7145 14 15.121 14.2459 14.6834 14.6835C14.2458 15.121 14 15.7145 14 16.3334Z" stroke="#0C0A18" stroke-width="2" stroke-linecap="round" stroke-linejoin="round"/>
</svg>
