<svg width="28" height="28" viewBox="0 0 28 28" fill="none" xmlns="http://www.w3.org/2000/svg">
<path d="M5.83333 18.6667C6.45217 18.6667 7.04566 18.9125 7.48325 19.3501C7.92083 19.7877 8.16667 20.3812 8.16667 21C8.16667 21.6188 7.92083 22.2123 7.48325 22.6499C7.04566 23.0875 6.45217 23.3333 5.83333 23.3333C5.21449 23.3333 4.621 23.0875 4.18342 22.6499C3.74583 22.2123 3.5 21.6188 3.5 21C3.5 20.3812 3.74583 19.7877 4.18342 19.3501C4.621 18.9125 5.21449 18.6667 5.83333 18.6667ZM5.83333 18.6667V12.8333C5.83333 11.2862 6.44791 9.80251 7.54188 8.70854C8.63584 7.61458 10.1196 7 11.6667 7H15.1667M22.1667 9.33333C21.5478 9.33333 20.9543 9.0875 20.5168 8.64992C20.0792 8.21233 19.8333 7.61884 19.8333 7C19.8333 6.38116 20.0792 5.78767 20.5168 5.35008C20.9543 4.9125 21.5478 4.66667 22.1667 4.66667C22.7855 4.66667 23.379 4.9125 23.8166 5.35008C24.2542 5.78767 24.5 6.38116 24.5 7C24.5 7.61884 24.2542 8.21233 23.8166 8.64992C23.379 9.0875 22.7855 9.33333 22.1667 9.33333ZM22.1667 9.33333V15.1667C22.1667 16.7138 21.5521 18.1975 20.4581 19.2915C19.3642 20.3854 17.8804 21 16.3333 21H12.8333M12.8333 21L16.3333 17.5M12.8333 21L16.3333 24.5M15.1667 7L11.6667 3.5M15.1667 7L11.6667 10.5" stroke="#0C0A18" stroke-width="2" stroke-linecap="round" stroke-linejoin="round"/>
</svg>
