<svg width="53" height="53" viewBox="0 0 53 53" fill="none" xmlns="http://www.w3.org/2000/svg">
<path d="M41.7375 15.4584C43.7348 18.7735 44.5883 22.6528 44.1667 26.5V28.7084C44.1641 31.0335 44.7734 33.3183 45.9333 35.3334M17.6667 24.2917C17.6667 21.949 18.5973 19.7022 20.2539 18.0456C21.9105 16.389 24.1573 15.4584 26.5 15.4584C28.8428 15.4584 31.0895 16.389 32.7461 18.0456C34.4027 19.7022 35.3333 21.949 35.3333 24.2917V26.5C35.3333 31.2782 36.8831 35.9275 39.75 39.75M26.5 24.2917V28.7084C26.4929 35.0229 28.4196 41.1881 32.0208 46.375M17.6667 33.125C18.2071 37.7401 19.5524 42.2246 21.6417 46.375M10.8208 41.9584C9.33076 36.9461 8.65962 31.7262 8.83333 26.5V24.2917C8.82487 21.1865 9.63501 18.1339 11.1821 15.4415C12.7292 12.7491 14.9587 10.512 17.6458 8.95577C20.3329 7.39949 23.3827 6.57895 26.4879 6.57685C29.5932 6.57474 32.6441 7.39114 35.3333 8.94377" stroke="#0095A9" stroke-width="4" stroke-linecap="round" stroke-linejoin="round"/>
</svg>
