<svg width="24" height="24" viewBox="0 0 24 24" fill="none" xmlns="http://www.w3.org/2000/svg">
<path d="M9.99976 4L11.9998 5L13.9998 4M11.9998 2V8.5L14.9998 10.22M17.9277 6.26794L18.0617 8.49994L19.9277 9.73194M20.6598 7L15.0308 10.25L15.0408 13.708M19.9277 14.2679L18.0617 15.4999L17.9277 17.7319M20.6598 17L15.0308 13.75L12.0408 15.488M13.9998 20L11.9998 19L9.99976 20M11.9998 22V15.5L8.99976 13.78M6.07178 17.7319L5.93778 15.4999L4.07178 14.2679M3.33984 17L8.96884 13.75L8.95884 10.292M4.07178 9.73194L5.93778 8.49994L6.07178 6.26794M3.33984 7L8.96884 10.25L11.9588 8.512" stroke="#0095A9" stroke-width="2" stroke-linecap="round" stroke-linejoin="round"/>
</svg>
