<svg width="72" height="72" viewBox="0 0 72 72" fill="none" xmlns="http://www.w3.org/2000/svg">
<path d="M45 24H51M45 36H51M21 48H51M9 21C9 18.6131 9.94821 16.3239 11.636 14.636C13.3239 12.9482 15.6131 12 18 12H54C56.3869 12 58.6761 12.9482 60.364 14.636C62.0518 16.3239 63 18.6131 63 21V51C63 53.3869 62.0518 55.6761 60.364 57.364C58.6761 59.0518 56.3869 60 54 60H18C15.6131 60 13.3239 59.0518 11.636 57.364C9.94821 55.6761 9 53.3869 9 51V21ZM21 30C21 31.5913 21.6321 33.1174 22.7574 34.2426C23.8826 35.3679 25.4087 36 27 36C28.5913 36 30.1174 35.3679 31.2426 34.2426C32.3679 33.1174 33 31.5913 33 30C33 28.4087 32.3679 26.8826 31.2426 25.7574C30.1174 24.6321 28.5913 24 27 24C25.4087 24 23.8826 24.6321 22.7574 25.7574C21.6321 26.8826 21 28.4087 21 30Z" stroke="#0095A9" stroke-width="4" stroke-linecap="round" stroke-linejoin="round"/>
</svg>
