<svg width="32" height="32" viewBox="0 0 32 32" fill="none" xmlns="http://www.w3.org/2000/svg">
<path d="M20 14.6667V14.68M21.3333 4V9.07067C22.9835 10.0255 24.2398 11.5366 24.8773 13.3333H26.6653C27.019 13.3333 27.3581 13.4738 27.6081 13.7239C27.8582 13.9739 27.9987 14.313 27.9987 14.6667V17.3333C27.9987 17.687 27.8582 18.0261 27.6081 18.2761C27.3581 18.5262 27.019 18.6667 26.6653 18.6667H24.876C24.4274 19.9338 23.6672 21.0678 22.6653 21.964V24.6667C22.6653 25.1971 22.4546 25.7058 22.0795 26.0809C21.7045 26.456 21.1958 26.6667 20.6653 26.6667C20.1349 26.6667 19.6262 26.456 19.2511 26.0809C18.876 25.7058 18.6653 25.1971 18.6653 24.6667V23.8893C18.2247 23.9631 17.7787 24.0002 17.332 24H11.9987C11.5519 24.0002 11.1059 23.9631 10.6653 23.8893V24.6667C10.6653 25.1971 10.4546 25.7058 10.0795 26.0809C9.70447 26.456 9.19577 26.6667 8.66533 26.6667C8.1349 26.6667 7.62619 26.456 7.25112 26.0809C6.87605 25.7058 6.66533 25.1971 6.66533 24.6667V21.964C5.45728 20.884 4.6057 19.4625 4.22331 17.8878C3.84092 16.3131 3.94575 14.6594 4.52392 13.1456C5.10209 11.6318 6.12635 10.3293 7.46111 9.41044C8.79587 8.49159 10.3782 7.99974 11.9987 8H15.332L21.332 4H21.3333Z" stroke="#0095A9" stroke-width="2" stroke-linecap="round" stroke-linejoin="round"/>
</svg>
