<svg width="72" height="72" viewBox="0 0 72 72" fill="none" xmlns="http://www.w3.org/2000/svg">
<path d="M51 24C53.364 27 54 30 54 33V36M27 33C27 28.266 31.029 24 36 24C40.971 24 45 28.266 45 33V39M36 33V39M18.0001 36V31.809C17.9821 25.812 21.4081 20.262 26.9791 17.259C29.7512 15.7784 32.845 15.0025 35.9877 14.9999C39.1304 14.9973 42.2255 15.768 45.0001 17.244M36 51V63M30 60L42 54M30 54L42 60M15 51V63M9 60L21 54M9 54L21 60M57 51V63M51 60L63 54M51 54L63 60" stroke="#0095A9" stroke-width="4" stroke-linecap="round" stroke-linejoin="round"/>
</svg>
