<svg width="32" height="32" viewBox="0 0 32 32" fill="none" xmlns="http://www.w3.org/2000/svg">
<path d="M4 13.3332H28M9.33333 19.9998H9.34667M14.6667 19.9998H17.3333M4 10.6665C4 9.60564 4.42143 8.58822 5.17157 7.83808C5.92172 7.08793 6.93913 6.6665 8 6.6665H24C25.0609 6.6665 26.0783 7.08793 26.8284 7.83808C27.5786 8.58822 28 9.60564 28 10.6665V21.3332C28 22.394 27.5786 23.4115 26.8284 24.1616C26.0783 24.9117 25.0609 25.3332 24 25.3332H8C6.93913 25.3332 5.92172 24.9117 5.17157 24.1616C4.42143 23.4115 4 22.394 4 21.3332V10.6665Z" stroke="#0095A9" stroke-width="2" stroke-linecap="round" stroke-linejoin="round"/>
</svg>
