<svg width="32" height="32" viewBox="0 0 32 32" fill="none" xmlns="http://www.w3.org/2000/svg">
<path d="M18.667 18.75C20.4129 18.7501 22.0877 19.4432 23.3223 20.6777C24.5568 21.9123 25.2499 23.5871 25.25 25.333V28C25.25 28.6904 24.6904 29.25 24 29.25C23.3096 29.25 22.75 28.6904 22.75 28V25.333C22.7499 24.2502 22.3194 23.212 21.5537 22.4463C20.788 21.6806 19.7498 21.2501 18.667 21.25H17.2578L18.7285 22.8154C19.1067 23.2178 19.0869 23.8503 18.6846 24.2285C18.4467 24.452 18.1288 24.5357 17.8301 24.4844L18.0215 25.2979C18.1019 25.6405 17.9961 26.0004 17.7432 26.2451L16.2188 27.7188C15.8312 28.0935 15.2167 28.0934 14.8291 27.7188L13.3047 26.2451C13.0517 26.0004 12.946 25.6406 13.0264 25.2979L13.9082 21.5459L13.793 21.25H13.333C12.2502 21.2501 11.212 21.6806 10.4463 22.4463C9.68059 23.212 9.25009 24.2502 9.25 25.333V28C9.25 28.6904 8.69036 29.25 8 29.25C7.30964 29.25 6.75 28.6904 6.75 28V25.333C6.75009 23.5871 7.4432 21.9123 8.67773 20.6777C9.91227 19.4432 11.5871 18.7501 13.333 18.75H18.667ZM15.1025 25.2021L15.5234 25.6084L15.9443 25.2021L15.5234 23.4121L15.1025 25.2021ZM16 2.75C17.7459 2.75 19.4207 3.44322 20.6553 4.67773C21.8898 5.91227 22.5829 7.58712 22.583 9.33301C22.583 11.0789 21.8898 12.7537 20.6553 13.9883C19.4207 15.2229 17.746 15.917 16 15.917C14.254 15.917 12.5793 15.2229 11.3447 13.9883C10.1102 12.7537 9.41699 11.0789 9.41699 9.33301C9.41708 7.58712 10.1102 5.91227 11.3447 4.67773C12.5793 3.44322 14.2541 2.75 16 2.75ZM16 5.25C14.917 5.25 13.8781 5.68052 13.1123 6.44629C12.3468 7.21195 11.9171 8.25031 11.917 9.33301C11.917 10.4159 12.3466 11.4549 13.1123 12.2207C13.8781 12.9865 14.917 13.417 16 13.417C17.083 13.417 18.1219 12.9865 18.8877 12.2207C19.6534 11.4549 20.083 10.4159 20.083 9.33301C20.0829 8.25031 19.6532 7.21195 18.8877 6.44629C18.1219 5.68052 17.083 5.25 16 5.25Z" fill="#0095A9"/>
</svg>
