<svg width="72" height="72" viewBox="0 0 72 72" fill="none" xmlns="http://www.w3.org/2000/svg">
<g clip-path="url(#clip0_252_741)">
<path d="M36 36C35.2044 36 34.4413 35.6839 33.8787 35.1213C33.3161 34.5587 33 33.7956 33 33C33 32.2044 33.3161 31.4413 33.8787 30.8787C34.4413 30.3161 35.2044 30 36 30C36.7956 30 37.5587 30.3161 38.1213 30.8787C38.6839 31.4413 39 32.2044 39 33C39 33.7956 38.6839 34.5587 38.1213 35.1213C37.5587 35.6839 36.7956 36 36 36ZM36 36V43.5M35.9999 9C43.0074 15.1997 52.1533 18.4277 61.4999 18C62.8606 22.629 63.277 27.4844 62.7242 32.2775C62.1715 37.0707 60.6608 41.7038 58.2821 45.9016C55.9033 50.0994 52.705 53.7761 48.8772 56.7134C45.0494 59.6507 40.6702 61.7886 35.9999 63C31.3295 61.7886 26.9503 59.6507 23.1225 56.7134C19.2947 53.7761 16.0964 50.0994 13.7177 45.9016C11.3389 41.7038 9.82827 37.0707 9.2755 32.2775C8.72272 27.4844 9.13909 22.629 10.4999 18C19.8465 18.4277 28.9924 15.1997 35.9999 9Z" stroke="#0095A9" stroke-width="4" stroke-linecap="round" stroke-linejoin="round"/>
</g>
<defs>
<clipPath id="clip0_252_741">
<rect width="72" height="72" fill="white"/>
</clipPath>
</defs>
</svg>
