<svg width="72" height="72" viewBox="0 0 72 72" fill="none" xmlns="http://www.w3.org/2000/svg">
<path d="M12 24V18C12 16.4087 12.6321 14.8826 13.7574 13.7574C14.8826 12.6321 16.4087 12 18 12H24M12 48V54C12 55.5913 12.6321 57.1174 13.7574 58.2426C14.8826 59.3679 16.4087 60 18 60H24M48 12H54C55.5913 12 57.1174 12.6321 58.2426 13.7574C59.3679 14.8826 60 16.4087 60 18V24M48 60H54C55.5913 60 57.1174 59.3679 58.2426 58.2426C59.3679 57.1174 60 55.5913 60 54V48M24 48C24 46.4087 24.6321 44.8826 25.7574 43.7574C26.8826 42.6321 28.4087 42 30 42H42C43.5913 42 45.1174 42.6321 46.2426 43.7574C47.3679 44.8826 48 46.4087 48 48M30 27C30 28.5913 30.6321 30.1174 31.7574 31.2426C32.8826 32.3679 34.4087 33 36 33C37.5913 33 39.1174 32.3679 40.2426 31.2426C41.3679 30.1174 42 28.5913 42 27C42 25.4087 41.3679 23.8826 40.2426 22.7574C39.1174 21.6321 37.5913 21 36 21C34.4087 21 32.8826 21.6321 31.7574 22.7574C30.6321 23.8826 30 25.4087 30 27Z" stroke="#0095A9" stroke-width="4" stroke-linecap="round" stroke-linejoin="round"/>
</svg>
