<svg width="22" height="25" viewBox="0 0 22 25" fill="none" xmlns="http://www.w3.org/2000/svg">
<path d="M7.17659 18.2941V19.5294C7.17659 20.5123 7.56703 21.4549 8.26202 22.1499C8.95701 22.8449 9.89961 23.2353 10.8825 23.2353C11.8653 23.2353 12.8079 22.8449 13.5029 22.1499C14.1979 21.4549 14.5884 20.5123 14.5884 19.5294V18.2941M8.41189 3.47059C8.41189 2.81535 8.67218 2.18694 9.1355 1.72362C9.59883 1.26029 10.2272 1 10.8825 1C11.5377 1 12.1661 1.26029 12.6294 1.72362C13.0928 2.18694 13.3531 2.81535 13.3531 3.47059C14.7717 4.14139 15.981 5.18558 16.8515 6.49125C17.7219 7.79693 18.2207 9.31486 18.2942 10.8824V14.5882C18.3872 15.3562 18.6592 16.0917 19.0883 16.7353C19.5174 17.379 20.0917 17.9129 20.7648 18.2941H1.00012C1.67328 17.9129 2.24753 17.379 2.67665 16.7353C3.10576 16.0917 3.37775 15.3562 3.47071 14.5882V10.8824C3.54428 9.31486 4.04302 7.79693 4.91347 6.49125C5.78392 5.18558 6.99326 4.14139 8.41189 3.47059Z" stroke="white" stroke-width="2" stroke-linecap="round" stroke-linejoin="round"/>
</svg>
