<svg width="152" height="144" viewBox="0 0 152 144" fill="none" xmlns="http://www.w3.org/2000/svg">
<path d="M56 44H56.08M96 44H96.08M56 76C58.607 78.6608 61.7188 80.7746 65.153 82.2177C68.5872 83.6608 72.2749 84.4041 76 84.4041C79.7251 84.4041 83.4128 83.6608 86.847 82.2177C90.2812 80.7746 93.393 78.6608 96 76M124 4C130.365 4 136.47 6.52856 140.971 11.0294C145.471 15.5303 148 21.6348 148 28V92C148 98.3652 145.471 104.47 140.971 108.971C136.47 113.471 130.365 116 124 116H84L44 140V116H28C21.6348 116 15.5303 113.471 11.0294 108.971C6.52856 104.47 4 98.3652 4 92V28C4 21.6348 6.52856 15.5303 11.0294 11.0294C15.5303 6.52856 21.6348 4 28 4H124Z" stroke="#0095A9" stroke-width="8" stroke-linecap="round" stroke-linejoin="round"/>
</svg>
