<svg width="25" height="22" viewBox="0 0 25 22" fill="none" xmlns="http://www.w3.org/2000/svg">
<path d="M14.5882 5.94118V3.47059C14.5882 2.81535 14.3279 2.18694 13.8646 1.72362C13.4013 1.26029 12.7729 1 12.1176 1H3.47059C2.81535 1 2.18694 1.26029 1.72362 1.72362C1.26029 2.18694 1 2.81535 1 3.47059V18.2941C1 18.9494 1.26029 19.5778 1.72362 20.0411C2.18694 20.5044 2.81535 20.7647 3.47059 20.7647H12.1176C12.7729 20.7647 13.4013 20.5044 13.8646 20.0411C14.3279 19.5778 14.5882 18.9494 14.5882 18.2941V15.8235M8.41176 10.8824H23.2353M23.2353 10.8824L19.5294 7.17647M23.2353 10.8824L19.5294 14.5882" stroke="white" stroke-width="2" stroke-linecap="round" stroke-linejoin="round"/>
</svg>
