<svg width="24" height="23" viewBox="0 0 24 23" fill="none" xmlns="http://www.w3.org/2000/svg">
<path d="M17.8333 19.1667C18.5406 19.1667 19.2189 19.4476 19.719 19.9477C20.219 20.4478 20.5 21.1261 20.5 21.8333C20.5 21.1261 20.781 20.4478 21.281 19.9477C21.7811 19.4476 22.4594 19.1667 23.1667 19.1667C22.4594 19.1667 21.7811 18.8857 21.281 18.3856C20.781 17.8855 20.5 17.2072 20.5 16.5C20.5 17.2072 20.219 17.8855 19.719 18.3856C19.2189 18.8857 18.5406 19.1667 17.8333 19.1667ZM17.8333 3.16667C18.5406 3.16667 19.2189 3.44762 19.719 3.94772C20.219 4.44781 20.5 5.12609 20.5 5.83333C20.5 5.12609 20.781 4.44781 21.281 3.94772C21.7811 3.44762 22.4594 3.16667 23.1667 3.16667C22.4594 3.16667 21.7811 2.88572 21.281 2.38562C20.781 1.88552 20.5 1.20724 20.5 0.5C20.5 1.20724 20.219 1.88552 19.719 2.38562C19.2189 2.88572 18.5406 3.16667 17.8333 3.16667ZM8.5 19.1667C8.5 17.0449 9.34285 15.0101 10.8431 13.5098C12.3434 12.0095 14.3783 11.1667 16.5 11.1667C14.3783 11.1667 12.3434 10.3238 10.8431 8.82352C9.34285 7.32323 8.5 5.2884 8.5 3.16667C8.5 5.2884 7.65714 7.32323 6.15685 8.82352C4.65656 10.3238 2.62173 11.1667 0.5 11.1667C2.62173 11.1667 4.65656 12.0095 6.15685 13.5098C7.65714 15.0101 8.5 17.0449 8.5 19.1667Z" fill="url(#paint0_linear_3051_945)" stroke="url(#paint1_linear_3051_945)" stroke-linecap="round" stroke-linejoin="round"/>
<defs>
<linearGradient id="paint0_linear_3051_945" x1="11.8333" y1="0.5" x2="11.8333" y2="21.8333" gradientUnits="userSpaceOnUse">
<stop stop-color="#0099FF"/>
<stop offset="1" stop-color="#FF6600"/>
</linearGradient>
<linearGradient id="paint1_linear_3051_945" x1="11.8333" y1="0.5" x2="11.8333" y2="21.8333" gradientUnits="userSpaceOnUse">
<stop stop-color="#0099FF"/>
<stop offset="1" stop-color="#FF6600"/>
</linearGradient>
</defs>
</svg>
