<svg width="10" height="8" viewBox="0 0 10 8" fill="none" xmlns="http://www.w3.org/2000/svg">
<path d="M0.400002 2.90002H9.4M2.4 5.40002H2.405M4.4 5.40002H5.4M0.400002 1.90002C0.400002 1.5022 0.558037 1.12067 0.839341 0.839364C1.12065 0.55806 1.50218 0.400024 1.9 0.400024H7.9C8.29783 0.400024 8.67936 0.55806 8.96066 0.839364C9.24197 1.12067 9.4 1.5022 9.4 1.90002V5.90002C9.4 6.29785 9.24197 6.67938 8.96066 6.96068C8.67936 7.24199 8.29783 7.40002 7.9 7.40002H1.9C1.50218 7.40002 1.12065 7.24199 0.839341 6.96068C0.558037 6.67938 0.400002 6.29785 0.400002 5.90002V1.90002Z" stroke="#616161" stroke-width="0.8" stroke-linecap="round" stroke-linejoin="round"/>
</svg>
