<svg width="7" height="9" viewBox="0 0 7 9" fill="none" xmlns="http://www.w3.org/2000/svg">
<path d="M4.25714 2.62225H3.18571C3.01521 2.62225 2.8517 2.69248 2.73114 2.81751C2.61058 2.94253 2.54285 3.1121 2.54285 3.28891C2.54285 3.46572 2.61058 3.63529 2.73114 3.76032C2.8517 3.88534 3.01521 3.95558 3.18571 3.95558H3.61428C3.78478 3.95558 3.94829 4.02582 4.06885 4.15084C4.18941 4.27587 4.25714 4.44544 4.25714 4.62225C4.25714 4.79906 4.18941 4.96863 4.06885 5.09365C3.94829 5.21868 3.78478 5.28891 3.61428 5.28891H2.54285M3.39999 5.28891V5.95558M3.39999 1.95558V2.62225M0.399994 8.40002V1.28891C0.399994 1.05317 0.4903 0.827073 0.651045 0.660374C0.811791 0.493675 1.02981 0.400024 1.25714 0.400024H5.54285C5.77018 0.400024 5.9882 0.493675 6.14894 0.660374C6.30969 0.827073 6.39999 1.05317 6.39999 1.28891V8.40002L5.11428 7.51114L4.25714 8.40002L3.39999 7.51114L2.54285 8.40002L1.68571 7.51114L0.399994 8.40002Z" stroke="#616161" stroke-width="0.8" stroke-linecap="round" stroke-linejoin="round"/>
</svg>
