<svg width="10" height="9" viewBox="0 0 10 9" fill="none" xmlns="http://www.w3.org/2000/svg">
<path d="M6.40066 4.16473V4.16944M6.90064 0.400024V2.18967C7.51941 2.52667 7.99051 3.06 8.22956 3.69414H8.90003C9.03263 3.69414 9.1598 3.74372 9.25356 3.83197C9.34733 3.92023 9.4 4.03992 9.4 4.16473V5.10591C9.4 5.23071 9.34733 5.35041 9.25356 5.43866C9.1598 5.52692 9.03263 5.5765 8.90003 5.5765H8.22906C8.06086 6.02374 7.77579 6.42395 7.40011 6.74026V7.69414C7.40011 7.88135 7.32109 8.0609 7.18045 8.19328C7.03981 8.32565 6.84905 8.40002 6.65015 8.40002C6.45125 8.40002 6.26049 8.32565 6.11985 8.19328C5.9792 8.0609 5.90019 7.88135 5.90019 7.69414V7.41979C5.73497 7.44584 5.56774 7.4589 5.40022 7.45885H3.40032C3.2328 7.4589 3.06557 7.44584 2.90035 7.41979V7.69414C2.90035 7.88135 2.82134 8.0609 2.68069 8.19328C2.54005 8.32565 2.34929 8.40002 2.15039 8.40002C1.95149 8.40002 1.76073 8.32565 1.62009 8.19328C1.47944 8.0609 1.40043 7.88135 1.40043 7.69414V6.74026C0.947437 6.35907 0.628111 5.85738 0.484722 5.30161C0.341333 4.74583 0.380642 4.16218 0.597445 3.62789C0.814249 3.09361 1.19832 2.63389 1.69883 2.30959C2.19934 1.98529 2.79268 1.8117 3.40032 1.81179H4.65026L6.90014 0.400024H6.90064Z" stroke="#FA6C26" stroke-width="0.8" stroke-linecap="round" stroke-linejoin="round"/>
</svg>
